<?xml version="1.0" standalone="no"?>
<!DOCTYPE svg PUBLIC "-//W3C//DTD SVG 20010904//EN"
 "http://www.w3.org/TR/2001/REC-SVG-20010904/DTD/svg10.dtd">
<svg version="1.0" xmlns="http://www.w3.org/2000/svg"
 width="512.000000pt" height="512.000000pt" viewBox="0 0 512.000000 512.000000"
 preserveAspectRatio="xMidYMid meet">
<metadata>
Created by potrace 1.11, written by Peter Selinger 2001-2013
</metadata>
<g transform="translate(0.000000,512.000000) scale(0.100000,-0.100000)"
fill="#000000" stroke="none">
<path d="M2558 5065 c-2 -1 -61 -5 -133 -9 -195 -10 -302 -27 -495 -78 -870
-229 -1569 -962 -1746 -1833 -14 -71 -23 -119 -29 -165 -29 -199 -27 -551 5
-719 5 -26 11 -66 15 -90 8 -52 46 -201 73 -286 87 -270 230 -534 413 -767
l68 -87 -28 -68 c-15 -37 -31 -84 -34 -103 -4 -19 -9 -46 -12 -60 -9 -43 -7
-183 4 -235 31 -155 97 -273 214 -381 84 -77 198 -142 282 -160 80 -18 120
-22 209 -19 178 4 334 76 475 216 l70 70 58 -15 c88 -23 268 -54 363 -62 147
-13 510 -6 563 11 6 2 30 6 52 9 259 32 657 180 893 333 88 56 176 116 182
123 3 4 25 22 50 41 127 97 288 259 407 409 71 89 168 240 229 355 186 353
278 717 283 1127 13 1006 -625 1929 -1579 2286 -74 28 -146 53 -160 56 -14 3
-69 17 -123 30 -128 33 -287 56 -422 62 -60 3 -118 7 -127 8 -9 2 -18 3 -20 1z"/>
</g>
</svg>
